[img]http://imageshack.us/a/img32/407/seekingafriendfortheend.jpg[/img]

[b][color=green]Plot[/color][/b]

[b][color=black]As an asteroid nears Earth, a man finds himself alone after his wife leaves in a panic. He decides to take a road trip to reunite with his high school sweetheart. Accompanying him is a neighbor who inadvertently puts a wrench in his plan. 

[url="http://www.imdb.com/title/tt1307068/"][b]IMDB[/b][/url][/b]

[b]Seeking a Friend for the End of the World [2012] DVDRip x264 AAC -Sebastian[Ub3r]

Format                           : MPEG-4
Format profile                   : Base Media / Version 2
Codec ID                         : mp42
File size                        : 358 MiB
Duration                         : 1h 41mn
Overall bit rate                 : 495 Kbps
Encoded date                     : UTC 2012-10-10 16:52:53
Tagged date                      : UTC 2012-10-10 17:13:08

Video
ID                               : 1
Format                           : AVC
Format/Info                      : Advanced Video Codec
Format profile                   : Main@L2.1
Format settings, CABAC           : Yes
Format settings, ReFrames        : 4 frames
Codec ID                         : avc1
Codec ID/Info                    : Advanced Video Coding
Duration                         : 1h 41mn
Bit rate mode                    : Variable
Bit rate                         : 380 Kbps
Width                            : 640 pixels
Height                           : 272 pixels
Display aspect ratio             : 2.35:1
Frame rate mode                  : Variable
Frame rate                       : 23.976 fps
Minimum frame rate               : 23.974 fps
Maximum frame rate               : 23.981 fps
Color space                      : YUV
Chroma subsampling               : 4:2:0
Bit depth                        : 8 bits
Scan type                        : Progressive
Bits/(Pixel*Frame)               : 0.091
Stream size                      : 273 MiB (76%)
Writing library                  : x264 core 120
Encoded date                     : UTC 2012-10-10 16:52:53
Tagged date                      : UTC 2012-10-10 17:13:04

Audio
ID                               : 2
Format                           : AAC
Format/Info                      : Advanced Audio Codec
Format profile                   : LC
Codec ID                         : 40
Duration                         : 1h 41mn
Bit rate mode                    : Variable
Bit rate                         : 112 Kbps
Maximum bit rate                 : 201 Kbps
Channel(s)                       : 2 channels
Channel positions                : Front: L R
Sampling rate                    : 48.0 KHz
Compression mode                 : Lossy
Stream size                      : 80.8 MiB (23%)
Encoded date                     : UTC 2012-10-10 16:52:53
Tagged date                      : UTC 2012-10-10 17:13:03[/color][/b]

[b][color=black][size=200]SCREENSHOTS[/size][/color][/b]

[img]http://imageshack.us/a/img708/407/seekingafriendfortheend.jpg[/img]

[img]http://kastatic.com/i2/users/133df62bbf28e62494bb17fe11078f1a.gif[/img][img]http://kastatic.com/i2/users/133df62bbf28e62494bb17fe11078f1a.gif[/img]